<svg width="927" height="284" viewBox="0 0 927 284" fill="none" xmlns="http://www.w3.org/2000/svg">
<path d="M50.5825 198.946C35.6858 191.2 23.5315 179.646 14.1195 164.274C4.70124 148.908 0 130.33 0 108.55C0 90.1617 4.34422 72.6106 13.0485 55.9099C21.7464 39.2091 34.5516 25.7201 51.4767 15.4302C68.3954 5.1466 88.5305 0 111.891 0C124.52 0 135.126 1.51446 143.707 4.53696C152.288 7.56588 158.72 11.4355 163.011 16.1553C167.302 20.8752 169.447 25.8998 169.447 31.2229C169.447 37.9995 165.99 43.6915 159.081 48.2862C152.165 52.8874 142.279 55.1847 129.41 55.1847C132.27 48.8927 133.701 41.5129 133.701 33.039C133.701 25.2966 131.789 18.7607 127.982 13.4344C124.169 8.11455 118.687 5.4482 111.538 5.4482C100.814 5.4482 90.9822 9.93062 82.0473 18.8794C73.1093 27.8378 66.1396 39.5171 61.1351 53.9141C56.1305 68.3175 53.6282 83.1381 53.6282 98.3853C53.6282 113.633 56.0073 127.734 60.778 140.678C65.5425 153.628 72.9892 164.094 83.1216 172.08C93.2475 180.067 105.822 184.061 120.836 184.061C130.365 184.061 139.66 182.191 148.718 178.433C157.773 174.683 165.636 169.421 172.312 162.641C166.828 178.132 157.176 189.994 143.356 198.218C129.53 206.448 114.16 210.561 97.2411 210.561C81.0237 210.561 65.473 206.695 50.5825 198.946Z" fill="#E0678C"/>
<path d="M203.761 201.67C193.512 195.74 188.391 186.602 188.391 174.259C188.391 164.338 191.367 156.108 197.326 149.572C203.281 143.036 210.554 137.954 219.132 134.325C227.71 130.692 238.67 126.945 252.019 123.069C267.506 118.474 278.947 114.117 286.336 110C293.72 105.887 297.417 100.198 297.417 92.9368C297.417 83.741 295.508 76.5441 291.698 71.3365C287.885 66.1354 283.354 63.53 278.116 63.53C272.397 63.53 267.329 66.498 262.922 72.4243C258.508 78.357 256.309 86.4009 256.309 96.5658C256.309 102.136 257.14 106.731 258.811 110.363C246.657 110.363 237.239 108.126 230.572 103.647C223.897 99.1712 220.563 93.7871 220.563 87.4918C220.563 82.6533 222.645 77.9944 226.819 73.5152C230.986 69.0392 237.242 65.3461 245.586 62.4423C253.924 59.5385 263.933 58.085 275.613 58.085C288.482 58.085 300.636 60.3888 312.076 64.9835C323.517 69.5846 332.865 77.0896 340.138 87.4918C347.405 97.9005 351.042 111.091 351.042 127.064V128.154C351.042 149.938 351.222 164.582 351.579 172.08C351.936 179.585 353.187 191.81 355.332 208.748C343.178 204.391 329.829 202.212 315.296 202.212C306.001 202.212 297.657 202.819 290.273 204.028C282.883 205.244 278.593 205.969 277.405 206.207C270.015 207.66 263.582 208.748 258.101 209.476C252.616 210.202 246.18 210.564 238.796 210.564C225.685 210.561 214.004 207.603 203.761 201.67ZM279.19 197.675C284.428 193.924 288.782 187.873 292.238 179.524C295.692 171.175 297.423 160.465 297.423 147.396V107.096C297.183 110.488 295.515 113.812 292.418 117.082C289.319 120.348 284.198 125.01 277.048 131.058C265.844 140.498 257.206 148.972 251.131 156.47C245.055 163.975 242.016 172.934 242.016 183.336C242.016 189.631 243.981 194.534 247.915 198.038C251.848 201.548 256.789 203.303 262.751 203.303C268.464 203.303 273.945 201.429 279.19 197.675Z" fill="#E0678C"/>
<path d="M431.832 206.57C430.4 206.332 426.944 205.726 421.465 204.754C415.981 203.791 410.742 203.3 405.738 203.3C396.92 203.3 387.625 205.116 377.856 208.745C379.761 192.532 380.949 178.738 381.432 167.361C381.906 155.986 382.146 138.198 382.146 113.992V65.3465C382.146 53.003 381.666 42.7194 380.715 34.4894C379.761 26.2657 377.856 20.455 374.996 17.0635C405.498 17.0635 427.187 11.981 440.056 1.81619C438.384 15.857 437.253 29.5321 436.659 42.8382C436.062 56.1506 435.765 72.0076 435.765 90.396C441.961 79.5061 449.584 71.4011 458.643 66.0716C467.697 60.7518 476.989 58.0854 486.524 58.0854C498.679 58.0854 509.342 61.5956 518.52 68.6129C527.692 75.6365 534.785 84.8933 539.789 96.3865C544.794 107.883 547.296 120.047 547.296 132.872C547.296 146.428 544.314 159.134 538.358 170.99C532.4 182.852 523.104 192.41 510.473 199.671C497.838 206.932 481.874 210.561 462.573 210.561C453.512 210.561 443.269 209.23 431.832 206.57ZM477.586 197.493C482.351 192.41 486.221 184.97 489.204 175.167C492.18 165.365 493.674 153.692 493.674 140.133C493.674 121.982 491.226 106.131 486.344 92.5747C481.457 79.0248 474.844 72.245 466.506 72.245C461.022 72.245 455.543 74.8472 450.061 80.0515C444.577 85.2591 439.812 92.9373 435.762 103.105V154.655C435.762 171.843 438.321 184.549 443.449 192.773C448.57 201.003 454.943 205.116 462.573 205.116C467.811 205.116 472.816 202.575 477.586 197.493Z" fill="#E0678C"/>
<path d="M622.364 206.57C620.933 206.332 617.476 205.726 611.998 204.754C606.513 203.791 601.272 203.3 596.267 203.3C587.449 203.3 578.154 205.116 568.385 208.745C570.29 192.532 571.478 178.738 571.962 167.361C572.436 155.986 572.676 138.198 572.676 113.992V65.3465C572.676 53.003 572.195 42.7194 571.244 34.4894C570.29 26.2657 568.385 20.455 565.526 17.0635C596.03 17.0635 617.716 11.981 630.585 1.81619C628.914 15.857 627.779 29.5321 627.188 42.8382C626.591 56.1506 626.294 72.0076 626.294 90.396C632.49 79.5061 640.114 71.4011 649.172 66.0716C658.227 60.7518 667.522 58.0854 677.057 58.0854C689.211 58.0854 699.871 61.5956 709.049 68.6129C718.221 75.6365 725.314 84.8933 730.319 96.3865C735.323 107.883 737.826 120.047 737.826 132.872C737.826 146.428 734.843 159.134 728.887 170.99C722.929 182.852 713.634 192.41 701.006 199.671C688.371 206.932 672.406 210.561 653.102 210.561C644.047 210.561 633.804 209.23 622.364 206.57ZM668.122 197.493C672.887 192.41 676.757 184.97 679.739 175.167C682.716 165.365 684.207 153.692 684.207 140.133C684.207 121.982 681.761 106.131 676.877 92.5747C671.989 79.0248 665.377 72.245 657.039 72.245C651.554 72.245 646.076 74.8472 640.597 80.0515C635.112 85.2591 630.348 92.9373 626.298 103.105V154.655C626.298 171.843 628.853 184.549 633.981 192.773C639.103 201.003 645.478 205.116 653.105 205.116C658.347 205.116 663.351 202.575 668.122 197.493Z" fill="#E0678C"/>
<g filter="url(#filter0_d_3_4)">
<path d="M734.789 265.742C728.474 258.963 725.317 249.889 725.317 238.514C725.317 236.573 725.551 233.432 726.031 229.075C728.894 232.216 733.772 235.004 740.688 237.427C747.598 239.843 755.105 241.055 763.209 241.055C773.692 241.055 783.998 238.453 794.13 233.252C804.256 228.045 813.014 219.638 820.404 208.02L779.293 127.789C763.799 97.538 747.238 74.9109 729.605 59.9011C746.05 63.0487 762.371 64.6209 778.579 64.6209C793.827 64.6209 806.104 63.0487 815.399 59.9011C814.919 61.8423 814.685 63.7739 814.685 65.7087C814.685 71.0349 816.053 76.9067 818.796 83.3142C821.532 89.7314 825.765 98.8695 831.484 110.725L850.788 148.844L862.585 125.973C871.166 108.791 875.454 93.7871 875.454 80.9559C875.454 71.7601 873.425 64.7461 869.378 59.9011C873.902 61.1139 880.815 61.7172 890.11 61.7172C904.17 61.7172 915.136 60.5075 923 58.085C911.797 66.0712 902.322 74.9109 894.581 84.5881C886.834 94.2716 878.433 108.069 869.378 125.973L832.915 197.855C823.38 216.731 815.516 231.192 809.32 241.238C803.122 251.278 796.032 259.569 788.051 266.105C780.064 272.641 770.949 275.907 760.703 275.907C749.743 275.91 741.102 272.516 734.789 265.742Z" fill="#E0678C"/>
</g>
<ellipse cx="896.037" cy="10.3612" rx="9.32" ry="8.62046" fill="#4DC591"/>
<defs>
<filter id="filter0_d_3_4" x="721.317" y="58.085" width="205.683" height="225.822" filterUnits="userSpaceOnUse" color-interpolation-filters="sRGB">
<feFlood flood-opacity="0" result="BackgroundImageFix"/>
<feColorMatrix in="SourceAlpha" type="matrix" values="0 0 0 0 0 0 0 0 0 0 0 0 0 0 0 0 0 0 127 0" result="hardAlpha"/>
<feOffset dy="4"/>
<feGaussianBlur stdDeviation="2"/>
<feComposite in2="hardAlpha" operator="out"/>
<feColorMatrix type="matrix" values="0 0 0 0 0 0 0 0 0 0 0 0 0 0 0 0 0 0 0.25 0"/>
<feBlend mode="normal" in2="BackgroundImageFix" result="effect1_dropShadow_3_4"/>
<feBlend mode="normal" in="SourceGraphic" in2="effect1_dropShadow_3_4" result="shape"/>
</filter>
</defs>
</svg>
