<svg xmlns="http://www.w3.org/2000/svg" version="1.1" viewBox="-5.0 -10.0 110.0 110.0">
 <path d="m22.051 58.16h9.1992c0.64062 0 1.1602-0.51953 1.1602-1.1602v-1.9492c0-3.1602-2.5703-5.7383-5.7383-5.7383h-9.1992c-0.64062 0-1.1602 0.51953-1.1602 1.1602v1.9492c0.007812 3.1562 2.5781 5.7383 5.7383 5.7383zm-3.4102-6.5312h8.0391c1.8789 0 3.4102 1.5312 3.4102 3.4102v0.78906h-8.0391c-1.8789 0-3.4102-1.5312-3.4102-3.4102zm64.059-2.8477c-0.078125-1.2305-0.37109-2.3594-0.92188-3.5117l-2.3516-5h5.4219c3.1602 0 5.7305-2.5703 5.7305-5.7305v-0.16016c0-1.3281-1.0781-2.4102-2.4102-2.4102h-6.6406c-1.3281 0-2.4102 1.0781-2.4102 2.4102v3.5586h-0.5l-3.8906-11.969c-1.5195-4.6797-5.6797-7.6992-10.602-7.6992h-4.8086l-3.3086-7.0586c-0.19141-0.41016-0.60156-0.67188-1.0508-0.67188h-16.016c-0.44922 0-0.85938 0.26172-1.0508 0.67188l-3.3086 7.0586h-4.8086c-4.9219 0-9.0781 3.0195-10.602 7.6992l-3.8906 11.969h-0.5v-3.5586c0-1.3281-1.0781-2.4102-2.4102-2.4102h-6.6328c-1.3281 0-2.4102 1.0781-2.4102 2.4102v0.16016c0 3.1602 2.5703 5.7305 5.7305 5.7305h5.4219l-2.3516 5c-0.64062 1.3594-0.94141 2.6992-0.94141 4.2109v21.023c0 2.3594 1.9219 4.2812 4.2812 4.2812h3.9883c2.3594 0 4.2812-1.9219 4.2812-4.2812v-3.2109h31.109c-0.019531 0.41016-0.039062 0.82031-0.039062 1.2305 0 11.539 9.3906 20.93 20.93 20.93 11.539 0 20.93-9.3906 20.93-20.93 0.003906-9.1133-5.8398-16.875-13.969-19.742zm-70.238-10.84h-3.3984c-1.8789 0-3.3984-1.5312-3.3984-3.3984v-0.16016c0-0.050781 0.039063-0.089843 0.089844-0.089843h6.6406c0.050781 0 0.089844 0.039062 0.089844 0.089843l-0.003906 3.5586zm68.98-3.5625c0-0.050781 0.039063-0.089844 0.089844-0.089844h6.6406c0.050781 0 0.089844 0.039063 0.089844 0.089844v0.16016c0 1.8789-1.5312 3.3984-3.3984 3.3984h-3.3984l-0.003906-3.5586zm-41.762-21.508h14.539l2.5312 5.3984h-19.602zm-18.301 13.82c1.1992-3.6992 4.4883-6.0898 8.3906-6.0898h34.371c3.8906 0 7.1797 2.3906 8.3906 6.0898l4.2109 12.969c-4.6289 1.7812-12.52 1.7891-21.559 1.8008-2.6484 0-5.3984 0.011718-8.2188 0.058593-2.8281-0.050781-5.5703-0.050781-8.2188-0.058593-9.0391-0.011719-16.93-0.019532-21.559-1.8008zm-7.8672 22.777c0-1.1719 0.21875-2.1602 0.71875-3.2188l2.0781-4.4297c5.0586 1.9492 13.148 1.9609 22.422 1.9688 2.6484 0 5.3906 0.011719 8.2109 0.058594h0.019532 0.019531c2.8086-0.050781 5.5586-0.050781 8.2109-0.058594 9.2695-0.011718 17.352-0.03125 22.422-1.9688l2.0781 4.4297c0.28906 0.62109 0.48047 1.2109 0.60156 1.8281-1.4609-0.32031-2.9805-0.5-4.5391-0.5-8.1602 0-15.238 4.6914-18.691 11.52-0.92969-1.8594-2.8516-3.1484-5.0703-3.1484h-10.062c-3.1211 0-5.6719 2.5391-5.6719 5.6719v3.3398h-21.18c-0.85938 0-1.5703-0.69922-1.5703-1.5703zm7.8984 21.031c0 1.0781-0.87891 1.9609-1.9609 1.9609h-3.9883c-1.0781 0-1.9609-0.87891-1.9609-1.9609v-3.5391c0.48047 0.21094 1.0117 0.32812 1.5703 0.32812h6.3281v3.2109zm17.18-5.5391v-3.3398c0-1.8398 1.5-3.3398 3.3398-3.3398h10.039c1.8398 0 3.3398 1.5 3.3398 3.3398v2.3008c-0.078125 0.33984-0.14844 0.69141-0.21094 1.0391zm37.148 22.168c-10.262 0-18.609-8.3516-18.609-18.609 0-10.262 8.3516-18.609 18.609-18.609 10.262 0 18.609 8.3516 18.609 18.609 0.003906 10.262-8.3477 18.609-18.609 18.609zm11.551-26.777-3.3789-3.3789c-0.21875-0.21875-0.51172-0.33984-0.82031-0.33984s-0.60156 0.12109-0.82031 0.33984l-6.5312 6.5312-6.5312-6.5312c-0.21875-0.21875-0.51172-0.33984-0.82031-0.33984-0.30859 0-0.60156 0.12109-0.82031 0.33984l-3.3789 3.3789c-0.21875 0.21875-0.33984 0.51172-0.33984 0.82031s0.12109 0.60156 0.33984 0.82031l6.5312 6.5312-6.5312 6.5312c-0.44922 0.44922-0.44922 1.1914 0 1.6406l3.3789 3.3789c0.21875 0.21875 0.51172 0.33984 0.82031 0.33984 0.30859 0 0.60156-0.12109 0.82031-0.33984l6.5312-6.5312 6.5312 6.5312c0.21875 0.21875 0.51172 0.33984 0.82031 0.33984s0.60156-0.12109 0.82031-0.33984l3.3789-3.3789c0.44922-0.44922 0.44922-1.1914 0-1.6406l-6.5312-6.5312 6.5312-6.5312c0.44922-0.45313 0.44922-1.1914 0-1.6406zm-8.9883 7.3477c-0.21875 0.21875-0.33984 0.51172-0.33984 0.82031 0 0.30859 0.12109 0.60156 0.33984 0.82031l6.5312 6.5312-1.7383 1.7383-6.5312-6.5312c-0.21875-0.21875-0.51172-0.33984-0.82031-0.33984-0.30859 0-0.60156 0.12109-0.82031 0.33984l-6.5312 6.5312-1.7383-1.7383 6.5312-6.5312c0.21875-0.21875 0.33984-0.51172 0.33984-0.82031 0-0.30859-0.12109-0.60156-0.33984-0.82031l-6.5312-6.5312 1.7383-1.7383 6.5312 6.5312c0.21875 0.21875 0.51172 0.33984 0.82031 0.33984 0.30859 0 0.60156-0.12109 0.82031-0.33984l6.5312-6.5312 1.7383 1.7383z"/>
</svg>