<svg xmlns="http://www.w3.org/2000/svg" data-name="Layer 2" viewBox="0 0 128 128" x="0px" y="0px"><path d="M64.43,9.06c-.66-.2-.09-.23-43.66,12.72-.64,.19-1.07,.77-1.07,1.44v45.47c0,22.43,22.69,44.09,43.89,50.25,.26,.08,.55,.08,.84,0,21.2-6.16,43.89-27.82,43.89-50.25V23.22c0-.66-.44-1.25-1.07-1.44l-42.81-12.72Zm40.88,59.63c0,20.62-21.68,41.34-41.31,47.24-19.63-5.91-41.31-26.62-41.31-47.24V24.34l41.31-12.27,41.31,12.27v44.35Z"/><path d="M63.57,18.99L30.34,28.86c-.64,.19-1.07,.77-1.07,1.44v38.39c0,16.57,18.04,34.5,34.23,40.23,.32,.11,.67,.12,1,0,16.19-5.73,34.23-23.65,34.23-40.23V30.3c0-.66-.44-1.25-1.07-1.44-34-10.1-33.43-10.07-34.09-9.87Zm32.16,49.7c0,14.72-16.65,31.64-31.73,37.22-15.09-5.57-31.73-22.5-31.73-37.22V31.42l31.73-9.43,31.73,9.43v37.27Z"/><path d="M53.21,53.81c-3.66-3.63-9.96-1.04-9.96,4.11,0,1.55,.61,3.01,1.71,4.11l11.67,11.59c2.28,2.26,5.96,2.26,8.24,0l18.16-18.04c1.1-1.1,1.71-2.56,1.71-4.11,0-5.15-6.3-7.74-9.96-4.11l-14.03,13.94-7.54-7.49Zm27.71-4.32c1.1,1.1,1.1,2.86,0,3.96l-18.16,18.03c-1.07,1.07-2.95,1.06-4.02,0-12.37-12.29-12.49-11.96-12.49-13.57s1.28-2.8,2.83-2.8,1.43,.25,10.61,9.37c.58,.58,1.53,.58,2.11,0l15.09-14.99c1.11-1.1,2.91-1.1,4.02,0Z"/></svg>